<?xml version="1.0" encoding="UTF-8" standalone="no"?><svg width="482" height="240" version="1.1" viewBox="0 0 482 240" sodipodi:docname="rust.svg" xmlns:inkscape="http://www.inkscape.org/namespaces/inkscape" xmlns:sodipodi="http://sodipodi.sourceforge.net/DTD/sodipodi-0.dtd" xmlns="http://www.w3.org/2000/svg" xmlns:svg="http://www.w3.org/2000/svg"><sodipodi:namedview pagecolor="#ffffff" bordercolor="#000000" borderopacity=".25" inkscape:showpageshadow="2" inkscape:pageopacity="0" inkscape:pagecheckerboard="0" inkscape:deskcolor="#d1d1d1"/><g stroke-linecap="round"><path d="m257.29 70.708-.659 4.888h-5.685v19.205h-6.413V75.596H238.5v-4.888z"/><path d="M270.96 75.7q2.357 0 3.71 1.49 1.351 1.457 1.351 4.057v13.555h-6.17V82.357q0-1.214-.382-1.664-.346-.486-1.04-.486-1.421 0-2.738 2.115v12.48h-6.171V69.045l6.17-.624v9.707q1.145-1.248 2.427-1.838 1.283-.589 2.843-.589z"/><path d="M296.7 85.268q0 .208-.104 2.08h-11.301q.243 2.115 1.179 2.912.97.763 2.738.763 1.04 0 2.046-.382 1.04-.416 2.253-1.248l2.496 3.398q-1.456 1.213-3.328 1.94-1.872.694-4.056.694-4.715 0-7.176-2.634-2.427-2.67-2.427-7.142 0-2.808 1.006-5.061 1.04-2.253 3.05-3.57 2.011-1.318 4.854-1.318 4.056 0 6.413 2.53 2.357 2.497 2.357 7.038zm-6.067-1.733q-.034-1.838-.624-2.843-.589-1.005-1.976-1.005-1.282 0-1.941.901t-.832 3.155h5.373z"/><path d="M316.35 85.927h-1.768v8.875h-6.413V70.709h8.354q5.096 0 7.592 1.837 2.531 1.837 2.531 5.65 0 2.289-1.075 3.814-1.04 1.525-3.362 2.739l5.997 10.053h-7.141zm-1.768-4.368h2.15q3.327 0 3.327-3.363 0-1.56-.936-2.288-.901-.728-2.738-.728h-1.803z"/><path d="M346.21 94.801h-5.373l-.243-2.184q-1.941 2.808-5.512 2.808-2.565 0-3.883-1.525-1.282-1.56-1.282-4.299V76.324h6.17v12.48q0 1.179.347 1.664.381.45 1.11.45.658 0 1.282-.45.659-.485 1.213-1.387V76.324h6.171z"/><path d="M357.29 75.7q2.01 0 3.813.624 1.838.624 3.12 1.699l-2.218 3.397q-2.22-1.387-4.472-1.387-.971 0-1.456.312-.451.278-.451.798 0 .45.243.728.242.277 1.005.624.797.312 2.496.832 2.843.832 4.195 2.184 1.352 1.317 1.352 3.709 0 1.872-1.11 3.293-1.074 1.387-3.016 2.15-1.906.762-4.333.762-2.357 0-4.437-.728-2.046-.762-3.467-2.08l2.947-3.293q1.074.832 2.288 1.317 1.248.486 2.496.486 1.109 0 1.698-.347.624-.381.624-1.11 0-.554-.277-.866-.243-.312-.97-.59-.729-.311-2.497-.831-5.373-1.595-5.373-5.86 0-1.628.936-2.946.936-1.352 2.67-2.115 1.767-.762 4.194-.762z"/><path d="M380.01 93.9q-1.075.763-2.496 1.144t-2.773.381q-6.414 0-6.414-7.072v-7.8h-2.392v-4.229h2.392v-3.917l6.171-.728v4.645h4.195l-.624 4.23h-3.57v7.73q0 1.248.38 1.768.416.52 1.214.52.97 0 1.872-.52z"/><path d="M248.38 107.45q4.853 0 7.523 2.045 2.704 2.011 2.704 5.928 0 4.091-2.6 6.24-2.6 2.115-7.003 2.115h-2.461v7.765h-6.414V107.45zm.035 11.752q1.802 0 2.704-.901.936-.902.936-2.843 0-3.501-3.779-3.501h-1.733v7.245z"/><path d="M271.45 112.52q.901 0 1.872.312l-1.005 5.963q-.902-.278-1.664-.278-1.56 0-2.392 1.075-.798 1.04-1.248 3.19v8.77h-6.171v-18.477h5.373l.555 3.501q.555-1.837 1.837-2.946 1.318-1.11 2.843-1.11z"/><path d="M282.66 112.45q4.333 0 6.795 2.6t2.461 7.28q0 2.981-1.11 5.2-1.109 2.219-3.223 3.432-2.08 1.213-4.923 1.213-4.333 0-6.795-2.6t-2.461-7.28q0-2.981 1.11-5.2t3.189-3.432q2.114-1.213 4.957-1.213zm0 4.472q-1.49 0-2.219 1.317-.693 1.283-.693 4.056 0 2.878.693 4.16.728 1.248 2.219 1.248t2.184-1.282q.728-1.318.728-4.091 0-2.843-.728-4.125-.693-1.283-2.184-1.283z"/><path d="M312.73 114.25q-1.907.797-5.304.797 1.837.728 2.67 1.872.866 1.11.866 2.912 0 1.768-.97 3.155-.971 1.387-2.774 2.184t-4.23.797q-1.213 0-2.045-.173-.52.347-.52.867 0 .45.382.728.416.277 1.56.277h2.704q2.184 0 3.848.693 1.664.694 2.53 1.942.902 1.213.902 2.773 0 2.947-2.566 4.576-2.565 1.664-7.384 1.664-3.5 0-5.512-.728-1.976-.728-2.773-2.045-.797-1.318-.797-3.259h5.512q0 .797.277 1.213.312.45 1.11.624.797.208 2.357.208 2.045 0 2.808-.485t.762-1.317q0-.694-.554-1.144-.555-.451-1.734-.451h-2.634q-3.016 0-4.507-1.005-1.456-1.04-1.456-2.67 0-1.04.624-2.01.624-.971 1.664-1.595-1.803-.97-2.6-2.253t-.797-3.086q0-3.224 2.288-5.026 2.288-1.838 6.101-1.838 2.704.104 4.715-.589 2.01-.728 4.09-2.045zm-10.019 2.219q-1.11 0-1.768.728-.659.693-.659 1.976 0 1.386.659 2.114t1.803.728q2.426 0 2.426-2.912 0-1.352-.624-1.976-.589-.658-1.837-.658"/><path d="M325.64 112.52q.901 0 1.872.312l-1.005 5.963q-.902-.278-1.664-.278-1.56 0-2.392 1.075-.798 1.04-1.248 3.19v8.77h-6.171v-18.477h5.373l.555 3.501q.555-1.837 1.837-2.946 1.318-1.11 2.843-1.11z"/><path d="M343.68 125.86q0 1.005.243 1.49.277.486.936.729l-1.248 3.986q-1.768-.138-2.912-.728-1.11-.589-1.803-1.872-1.768 2.704-5.581 2.704-2.739 0-4.403-1.594-1.63-1.63-1.63-4.195 0-3.05 2.254-4.68t6.517-1.63h1.595v-.623q0-1.491-.624-2.011-.624-.555-2.253-.555-.867 0-2.184.278-1.283.242-2.635.693l-1.352-3.987q1.664-.693 3.57-1.04 1.907-.381 3.537-.381 4.16 0 6.066 1.664 1.907 1.63 1.907 5.027zm-8.493 1.976q.762 0 1.386-.381.66-.416 1.075-1.11v-2.98h-1.04q-1.664 0-2.461.623-.798.59-.798 1.803 0 .936.486 1.49.485.555 1.352.555z"/><path d="M368.87 112.45q2.15 0 3.467 1.49 1.317 1.457 1.317 4.057v13.555h-6.17v-12.445q0-2.15-1.249-2.15-1.282 0-2.357 2.115v12.48h-6.17v-12.445q0-2.15-1.249-2.15-1.282 0-2.357 2.116v12.48h-6.17v-18.477h5.373l.45 2.045q1.075-1.352 2.358-2.01 1.317-.66 3.016-.66 1.456 0 2.565.728 1.11.694 1.664 2.046 1.144-1.422 2.461-2.08 1.317-.694 3.05-.694z"/><path d="M398.52 112.45q2.15 0 3.467 1.49 1.317 1.457 1.317 4.057v13.555h-6.17v-12.445q0-2.15-1.249-2.15-1.282 0-2.357 2.115v12.48h-6.17v-12.445q0-2.15-1.249-2.15-1.282 0-2.357 2.116v12.48h-6.17v-18.477h5.373l.45 2.045q1.075-1.352 2.358-2.01 1.317-.66 3.016-.66 1.456 0 2.565.728 1.11.694 1.664 2.046 1.144-1.422 2.461-2.08 1.317-.694 3.05-.694z"/><path d="M413.41 113.07v18.477h-6.17V113.07zm-3.085-9.95q1.56 0 2.53.971 1.006.971 1.006 2.427t-1.006 2.427q-.97.97-2.53.97t-2.566-.97q-.97-.97-.97-2.427 0-1.456.97-2.427 1.006-.97 2.566-.97"/><path d="M428.95 112.45q2.357 0 3.71 1.456t1.351 4.09v13.556h-6.17v-12.445q0-1.214-.347-1.664-.347-.486-1.04-.486-1.456 0-2.773 2.115v12.48h-6.171v-18.477h5.373l.45 2.08q1.249-1.387 2.6-2.045 1.353-.659 3.017-.659z"/><path d="M455.59 114.25q-1.907.797-5.304.797 1.837.728 2.67 1.872.866 1.11.866 2.912 0 1.768-.97 3.155-.971 1.387-2.774 2.184t-4.23.797q-1.213 0-2.045-.173-.52.347-.52.867 0 .45.382.728.416.277 1.56.277h2.704q2.184 0 3.848.693 1.664.694 2.53 1.942.902 1.213.902 2.773 0 2.947-2.566 4.576-2.565 1.664-7.384 1.664-3.5 0-5.512-.728-1.976-.728-2.773-2.045-.797-1.318-.797-3.259h5.512q0 .797.277 1.213.312.45 1.11.624.797.208 2.357.208 2.045 0 2.808-.485t.762-1.317q0-.694-.554-1.144t-1.734-.451h-2.634q-3.016 0-4.507-1.005-1.456-1.04-1.456-2.67 0-1.04.624-2.01.624-.971 1.664-1.595-1.803-.97-2.6-2.253t-.797-3.086q0-3.224 2.288-5.026 2.288-1.838 6.101-1.838 2.704.104 4.715-.589 2.01-.728 4.09-2.045zm-10.019 2.219q-1.11 0-1.768.728-.659.693-.659 1.976 0 1.386.659 2.114t1.803.728q2.426 0 2.426-2.912 0-1.352-.624-1.976-.589-.658-1.837-.658"/><path d="M246.54 144.2v19.101h9.256l-.693 4.992h-14.976V144.2z"/><path d="M273.46 162.61q0 1.005.243 1.49.277.486.936.729l-1.248 3.986q-1.768-.138-2.912-.728-1.11-.589-1.803-1.872-1.768 2.704-5.581 2.704-2.739 0-4.403-1.594-1.63-1.63-1.63-4.195 0-3.05 2.254-4.68t6.517-1.63h1.595v-.623q0-1.491-.624-2.011-.624-.555-2.253-.555-.867 0-2.184.278-1.283.242-2.635.693l-1.352-3.987q1.664-.693 3.57-1.04 1.907-.381 3.537-.381 4.16 0 6.066 1.664 1.907 1.63 1.907 5.027zm-8.493 1.976q.762 0 1.386-.381.66-.416 1.075-1.11v-2.98h-1.04q-1.664 0-2.461.623-.798.59-.798 1.803 0 .936.486 1.49.485.555 1.352.555z"/><path d="M289.14 149.19q2.357 0 3.71 1.456t1.351 4.09v13.556h-6.17v-12.445q0-1.214-.347-1.664-.347-.486-1.04-.486-1.456 0-2.773 2.115v12.48H277.7v-18.477h5.373l.45 2.08q1.249-1.387 2.6-2.045 1.353-.659 3.017-.659z"/><path d="M315.78 151q-1.907.797-5.304.797 1.837.728 2.67 1.872.866 1.11.866 2.912 0 1.768-.97 3.155-.971 1.387-2.774 2.184t-4.23.797q-1.213 0-2.045-.173-.52.347-.52.867 0 .45.382.728.416.277 1.56.277h2.704q2.184 0 3.848.693 1.664.694 2.53 1.942.902 1.213.902 2.773 0 2.947-2.566 4.576-2.565 1.664-7.384 1.664-3.5 0-5.512-.728-1.976-.728-2.773-2.045-.797-1.318-.797-3.259h5.512q0 .797.277 1.213.312.45 1.11.624.797.208 2.357.208 2.045 0 2.808-.485t.762-1.317q0-.694-.554-1.144-.555-.451-1.734-.451h-2.634q-3.016 0-4.507-1.005-1.456-1.04-1.456-2.67 0-1.04.624-2.01.624-.971 1.664-1.595-1.803-.97-2.6-2.253t-.797-3.086q0-3.224 2.288-5.026 2.288-1.838 6.101-1.838 2.704.104 4.715-.589 2.01-.728 4.09-2.045zm-10.019 2.219q-1.11 0-1.768.728-.659.693-.659 1.976 0 1.386.659 2.114t1.803.728q2.426 0 2.426-2.912 0-1.352-.624-1.976-.589-.658-1.837-.658"/><path d="M333.86 168.29h-5.373l-.243-2.184q-1.941 2.808-5.512 2.808-2.565 0-3.883-1.525-1.282-1.56-1.282-4.299v-13.277h6.17v12.48q0 1.179.347 1.664.381.45 1.11.45.658 0 1.282-.45.659-.485 1.213-1.387v-12.757h6.171z"/><path d="M353.29 162.61q0 1.005.243 1.49.277.486.936.729l-1.248 3.986q-1.768-.138-2.912-.728-1.11-.589-1.803-1.872-1.768 2.704-5.581 2.704-2.739 0-4.403-1.594-1.63-1.63-1.63-4.195 0-3.05 2.254-4.68t6.517-1.63h1.595v-.623q0-1.491-.624-2.011-.624-.555-2.253-.555-.867 0-2.184.278-1.283.242-2.635.693l-1.352-3.987q1.664-.693 3.57-1.04 1.907-.381 3.537-.381 4.16 0 6.066 1.664 1.907 1.63 1.907 5.027zm-8.493 1.976q.762 0 1.386-.381.66-.416 1.075-1.11v-2.98h-1.04q-1.664 0-2.461.623-.798.59-.798 1.803 0 .936.486 1.49.485.555 1.352.555z"/><path d="M374.83 151q-1.907.797-5.304.797 1.837.728 2.67 1.872.866 1.11.866 2.912 0 1.768-.97 3.155-.971 1.387-2.774 2.184t-4.23.797q-1.213 0-2.045-.173-.52.347-.52.867 0 .45.382.728.416.277 1.56.277h2.704q2.184 0 3.848.693 1.664.694 2.53 1.942.902 1.213.902 2.773 0 2.947-2.566 4.576-2.565 1.664-7.384 1.664-3.5 0-5.512-.728-1.976-.728-2.773-2.045-.797-1.318-.797-3.259h5.512q0 .797.277 1.213.312.45 1.11.624.797.208 2.357.208 2.045 0 2.808-.485t.762-1.317q0-.694-.554-1.144t-1.734-.451h-2.634q-3.016 0-4.507-1.005-1.456-1.04-1.456-2.67 0-1.04.624-2.01.624-.971 1.664-1.595-1.803-.97-2.6-2.253t-.797-3.086q0-3.224 2.288-5.026 2.288-1.838 6.101-1.838 2.704.104 4.715-.589 2.01-.728 4.09-2.045zm-10.019 2.219q-1.11 0-1.768.728-.659.693-.659 1.976 0 1.386.659 2.114t1.803.728q2.426 0 2.426-2.912 0-1.352-.624-1.976-.589-.658-1.837-.658"/><path d="M393.08 158.76q0 .208-.104 2.08h-11.301q.243 2.115 1.179 2.912.97.763 2.738.763 1.04 0 2.046-.382 1.04-.416 2.253-1.248l2.496 3.398q-1.456 1.213-3.328 1.94-1.872.694-4.056.694-4.715 0-7.176-2.634-2.427-2.67-2.427-7.142 0-2.808 1.006-5.061 1.04-2.253 3.05-3.57 2.011-1.318 4.854-1.318 4.056 0 6.413 2.53 2.357 2.497 2.357 7.038zm-6.067-1.733q-.034-1.838-.624-2.843-.589-1.005-1.976-1.005-1.282 0-1.941.901t-.832 3.155h5.373z"/></g><path d="M119.34 26.05c-51.731 0-93.834 42.123-93.834 93.834s42.123 93.834 93.834 93.834 93.834-42.123 93.834-93.834S171.051 26.05 119.34 26.05m-.139 8.337a6.154 6.174 0 0 1 5.995 6.174 6.174 6.174 0 0 1-12.347 0 6.174 6.174 0 0 1 6.352-6.174zm14.134 10.164a75.97 75.97 0 0 1 52.01 37.041l-7.286 16.436c-1.25 2.839.04 6.174 2.858 7.444l14.015 6.214a76 76 0 0 1 .16 13.18h-7.802c-.774 0-1.092.517-1.092 1.27v3.574c0 8.417-4.744 10.263-8.913 10.719-3.97.457-8.357-1.667-8.913-4.09-2.342-13.16-6.233-15.96-12.387-20.822 7.643-4.844 15.583-12.01 15.583-21.578 0-10.342-7.086-16.853-11.91-20.05-6.789-4.466-14.292-5.359-16.317-5.359H62.748a75.97 75.97 0 0 1 42.5-23.98l9.509 9.965c2.144 2.243 5.697 2.342 7.94.179zm-87.74 45.696a6.174 6.174 0 0 1 5.995 6.174 6.174 6.174 0 0 1-12.347 0 6.174 6.174 0 0 1 6.352-6.174zm147.19.278a6.174 6.174 0 0 1 5.995 6.174 6.174 6.174 0 0 1-12.347 0 6.174 6.174 0 0 1 6.352-6.174zm-135.56.993h10.76v48.515H46.266a76 76 0 0 1-2.461-29.002l13.3-5.916c2.838-1.27 4.128-4.585 2.858-7.424zm44.902.516h25.627c1.33 0 9.35 1.528 9.35 7.543 0 4.983-6.154 6.77-11.216 6.77h-23.781zm0 34.858h19.632c1.787 0 9.588.516 12.07 10.48.773 3.058 2.5 13.023 3.671 16.219 1.172 3.573 5.916 10.719 10.977 10.719h32.04a76 76 0 0 1-7.028 8.139l-13.042-2.8c-3.037-.654-6.034 1.291-6.69 4.328l-3.096 14.451a75.97 75.97 0 0 1-63.343-.298l-3.097-14.45c-.655-3.038-3.632-4.983-6.67-4.328l-12.763 2.74a76 76 0 0 1-6.59-7.782h62.072c.695 0 1.171-.12 1.171-.774V141.58c0-.635-.476-.774-1.17-.774h-18.164zm-28.644 50.282a6.174 6.174 0 0 1 5.995 6.173 6.174 6.174 0 0 1-12.347 0 6.174 6.174 0 0 1 6.352-6.173zm91.412.278a6.174 6.174 0 0 1 5.995 6.173 6.174 6.174 0 0 1-12.347 0 6.174 6.174 0 0 1 6.352-6.173z" stroke-width="1.99"/><path d="M207.93 119.88a88.593 88.593 0 0 1-88.593 88.593 88.593 88.593 0 0 1-88.593-88.593 88.593 88.593 0 0 1 88.593-88.593 88.593 88.593 0 0 1 88.593 88.593m-1.667-8.556 13.816 8.556-13.816 8.556 11.87 11.096-15.205 5.697 9.488 13.2-16.059 2.621 6.75 14.809-16.259-.576 3.732 15.841-15.84-3.732.575 16.258-14.809-6.749-2.62 16.06-13.201-9.49-5.697 15.207-11.096-11.871-8.556 13.816-8.556-13.816-11.096 11.87-5.697-15.205-13.2 9.488-2.621-16.059-14.809 6.75.576-16.259-15.841 3.732 3.732-15.84-16.258.575 6.749-14.809-16.06-2.62 9.49-13.201-15.207-5.697 11.871-11.096-13.816-8.556 13.816-8.556-11.87-11.096 15.205-5.697-9.488-13.2 16.059-2.621-6.75-14.809 16.259.576-3.732-15.841 15.84 3.732-.575-16.258 14.809 6.749 2.62-16.06 13.201 9.49 5.697-15.207 11.096 11.871 8.556-13.816 8.556 13.816 11.096-11.87 5.697 15.205 13.2-9.488 2.621 16.059 14.809-6.75-.576 16.259 15.841-3.732-3.732 15.84 16.258-.575-6.749 14.809 16.06 2.62-9.49 13.201 15.207 5.697z" fill-rule="evenodd" stroke="#000" stroke-linecap="round" stroke-linejoin="round" stroke-width="5.96"/></svg>